<svg version="1.1" id="Layer_1" xmlns="http://www.w3.org/2000/svg" xmlns:xlink="http://www.w3.org/1999/xlink" x="0px" y="0px"
	 width="100%" viewBox="0 0 290 247" enable-background="new 0 0 290 247" xml:space="preserve">
<path fill="#FFFEFE" opacity="1.000000" stroke="none" 
	d="
M179.000000,248.000000 
	C119.333344,248.000000 60.166679,248.000000 1.000016,248.000000 
	C1.000011,165.666687 1.000011,83.333366 1.000005,1.000038 
	C97.666634,1.000025 194.333267,1.000025 290.999939,1.000013 
	C290.999939,83.333290 290.999939,165.666580 290.999969,247.999939 
	C253.833328,248.000000 216.666672,248.000000 179.000000,248.000000 
M86.683319,84.671196 
	C86.683319,84.671196 86.604759,84.670403 86.081970,84.801666 
	C85.687775,85.164757 85.293579,85.527840 84.268890,86.015297 
	C83.192787,87.022903 82.116692,88.030502 80.474800,89.288315 
	C79.621262,90.175835 78.767723,91.063354 77.286179,92.258995 
	C73.081230,98.141129 68.876282,104.023254 64.164688,110.333557 
	C61.562523,116.228889 58.960361,122.124229 56.052288,128.553925 
	C55.998695,128.957184 55.945103,129.360458 55.396568,130.315659 
	C54.912148,132.498398 54.427731,134.681122 53.523838,137.539001 
	C50.926289,151.469635 50.554417,165.329071 54.831989,179.697632 
	C54.936214,180.122940 55.040440,180.548264 55.019028,181.728699 
	C59.567608,190.855713 64.116188,199.982712 68.906250,209.637863 
	C69.219246,209.843613 69.532242,210.049377 69.799400,210.146133 
	C69.799400,210.146133 69.722694,210.236130 69.875923,210.895508 
	C73.425896,214.619827 76.975876,218.344147 80.506592,222.304398 
	C80.506592,222.304398 80.911705,222.420319 81.267822,222.975388 
	C81.813438,223.330612 82.359047,223.685837 83.208542,224.640457 
	C84.717896,225.593689 86.227257,226.546906 88.007439,227.799057 
	C88.233818,227.960846 88.486099,228.044647 89.088417,228.637939 
	C90.397926,229.412735 91.707436,230.187531 93.307053,231.432358 
	C93.801491,231.654938 94.295937,231.877518 95.010529,232.605484 
	C95.336578,232.746155 95.662628,232.886826 96.303818,233.487000 
	C96.814514,233.681213 97.325211,233.875427 98.147224,234.583511 
	C98.698906,234.799927 99.250595,235.016342 100.276031,235.750031 
	C103.130333,236.905060 105.984634,238.060089 108.930183,239.134445 
	C108.930183,239.134445 108.808746,239.143509 109.046921,239.575821 
	C109.046921,239.575821 109.482513,239.806946 109.482513,239.806946 
	C109.482513,239.806946 109.975410,239.793335 110.627785,240.174240 
	C126.024101,245.781082 141.754135,248.025665 158.622696,244.977249 
	C159.140686,244.717621 159.658676,244.457993 160.159058,244.253769 
	C160.159058,244.253769 160.216888,244.259354 161.026855,244.284439 
	C166.084671,242.624466 171.142471,240.964508 176.916351,239.180908 
	C179.604141,237.768188 182.291931,236.355484 185.660660,234.838089 
	C188.244064,232.969894 190.827484,231.101700 194.042114,229.030914 
	C198.769821,224.711151 203.497513,220.391388 208.795746,215.757401 
	C218.055817,205.289841 225.033981,193.552231 229.089279,179.326172 
	C229.646866,176.887268 230.204437,174.448349 231.082352,171.252625 
	C231.281265,162.507034 231.480179,153.761444 231.788391,144.222580 
	C229.630432,132.831650 226.886902,121.655579 219.885986,111.306465 
	C213.826889,99.926521 205.725098,90.359543 194.656097,82.706245 
	C194.186172,82.441734 193.716232,82.177231 193.039124,81.378304 
	C192.704758,81.215340 192.370377,81.052376 191.761566,80.431633 
	C191.282104,80.212158 190.802628,79.992683 189.901550,79.169838 
	C184.631424,75.471123 182.368759,75.922287 180.145355,81.838295 
	C180.174927,82.875969 180.204483,83.913651 180.041000,85.710976 
	C180.108261,86.486237 180.175537,87.261490 180.107346,88.956581 
	C180.136292,93.971672 180.165222,98.986763 180.045334,104.494904 
	C180.086823,104.661491 180.128296,104.828072 180.078140,105.674301 
	C180.162216,106.121246 180.246292,106.568199 180.237915,107.486748 
	C180.310287,107.839905 180.520950,108.061798 180.926208,108.063080 
	C180.926208,108.063080 180.823212,108.086441 180.852112,108.691483 
	C181.242767,109.110619 181.633438,109.529762 181.999725,109.999275 
	C181.999725,109.999275 182.053802,109.984833 182.165833,110.479301 
	C182.445297,110.648422 182.724777,110.817543 183.212494,111.449051 
	C183.488129,111.635239 183.763748,111.821426 184.295395,112.620903 
	C194.019485,122.687454 199.692551,134.838669 202.642578,149.242035 
	C201.788834,157.500641 200.935104,165.759262 200.007965,174.048172 
	C200.007965,174.048172 200.039062,174.121216 199.735718,174.241745 
	C199.528336,174.428253 199.525040,174.618164 199.277786,175.411911 
	C199.164520,175.895020 199.051254,176.378143 198.395905,177.276566 
	C198.136948,178.148651 197.877991,179.020737 197.114990,180.313736 
	C192.633469,188.466827 187.735367,196.443893 179.794586,201.597565 
	C172.806244,206.133118 165.256577,209.803772 157.193115,213.910812 
	C155.465591,214.336441 153.738068,214.762085 151.177109,215.166519 
	C143.117432,215.132462 135.057739,215.098389 126.239792,214.717178 
	C125.158890,214.582199 124.077980,214.447205 122.705467,214.047409 
	C122.334496,213.943420 121.963524,213.839417 121.092682,213.197281 
	C113.390892,208.140198 105.689102,203.083115 97.997101,197.996216 
	C97.997101,197.996216 97.970749,198.014465 97.696213,197.415009 
	C96.231796,195.522644 94.767387,193.630264 93.124916,191.926788 
	C93.124916,191.926788 93.339142,191.780197 93.217674,191.200760 
	C92.818153,190.788681 92.418640,190.376587 91.935669,189.359497 
	C91.402695,188.808014 90.869720,188.256531 90.183220,187.699860 
	C90.183220,187.699860 90.157249,187.548447 90.416313,187.350555 
	C90.416313,187.350555 90.316055,187.040344 90.220093,186.395233 
	C89.843315,185.895050 89.466530,185.394852 89.046082,185.007080 
	C89.046082,185.007080 89.120895,184.912430 89.101288,184.304138 
	C88.639809,183.436737 88.178329,182.569336 87.633888,181.277145 
	C87.633888,181.277145 87.299683,181.002090 87.196449,180.225357 
	C86.011269,176.779953 84.826088,173.334534 83.533890,169.016098 
	C80.423363,155.327515 81.749809,142.006409 87.115471,128.733002 
	C87.115471,128.733002 87.144623,128.357910 87.722565,127.944374 
	C87.985054,127.290886 88.247543,126.637398 88.767334,125.742020 
	C88.767334,125.742020 88.799301,125.390320 89.323235,125.036598 
	C91.594139,121.797226 93.865036,118.557854 96.740089,114.999893 
	C98.574348,113.033134 100.408607,111.066376 102.785416,108.443459 
	C102.891090,99.538361 103.201096,90.629059 103.017776,81.729919 
	C102.923599,77.158058 99.312645,75.508919 95.377876,77.970970 
	C92.733559,79.625572 90.336678,81.675629 87.307053,83.803619 
	C87.103340,84.118660 86.899620,84.433701 86.683319,84.671196 
M156.715744,6.338826 
	C156.469559,6.470788 156.398315,6.666500 156.104813,7.523158 
	C156.021744,7.990353 155.938675,8.457548 155.416412,9.479402 
	C155.043304,10.708290 154.915421,12.091459 154.255722,13.140035 
	C150.952545,18.390255 147.601776,23.617939 144.013412,28.672998 
	C143.500290,29.395842 141.600952,29.134676 140.239258,28.694130 
	C139.460373,27.147724 138.681473,25.601318 137.719772,23.429628 
	C136.530777,22.210653 135.341766,20.991678 133.899796,19.098127 
	C131.498459,15.550916 131.400909,9.733059 124.316582,10.031338 
	C122.891052,11.358567 121.465530,12.685797 119.644867,14.568397 
	C118.979958,19.438133 120.750092,22.421402 126.626846,22.756414 
	C126.820160,22.653019 127.013466,22.549622 127.595093,22.467709 
	C127.857094,22.361383 128.035233,22.174780 128.726089,21.856998 
	C129.470535,21.593737 130.214981,21.330477 130.993149,20.999119 
	C130.993149,20.999119 130.937195,21.050674 131.287323,21.614798 
	C133.113617,23.921778 134.939911,26.228760 136.818771,29.259743 
	C135.746262,30.170414 134.775452,31.252893 133.582062,31.959332 
	C130.091324,34.025700 126.511833,35.942169 122.324799,38.130886 
	C120.186974,40.744568 118.049156,43.358250 115.443253,46.320160 
	C115.270355,46.867325 115.097466,47.414486 114.363197,48.393753 
	C113.292389,52.016457 111.412529,55.614338 111.300484,59.266457 
	C110.945702,70.829994 111.251678,82.413811 111.148933,94.699364 
	C111.213760,95.175163 111.278595,95.650955 111.170876,97.011971 
	C111.231560,100.626625 111.292244,104.241280 111.151352,108.625694 
	C111.197922,109.414894 111.244492,110.204094 111.122391,111.919540 
	C111.108261,116.040825 110.608658,120.233612 111.202408,124.265381 
	C111.951576,129.352509 113.592651,134.308319 114.874260,139.713257 
	C114.874260,139.713257 115.124588,140.016647 115.145966,140.539383 
	C115.410988,140.748230 115.676010,140.957062 116.053558,141.618408 
	C116.190315,141.922195 116.418221,142.122009 116.930389,142.869705 
	C130.358658,161.430740 154.769669,160.194031 168.019806,142.062103 
	C175.130692,132.198364 172.772766,120.925621 172.990799,109.089020 
	C172.940033,103.405876 172.889252,97.722740 172.988464,91.131180 
	C172.944626,88.083710 172.900772,85.036240 173.049469,81.094406 
	C172.971466,77.750076 172.893478,74.405754 172.984360,70.158096 
	C172.919342,67.106361 172.854324,64.054626 172.910034,60.499508 
	C172.847275,60.338814 172.784500,60.178116 172.848633,59.260509 
	C172.705017,58.518925 172.561417,57.777340 172.559708,56.617786 
	C172.526596,56.297901 172.368912,56.060883 172.126617,55.269386 
	C171.856903,54.485485 171.587204,53.701588 171.301422,52.188580 
	C170.917770,51.318424 170.534119,50.448265 170.085037,48.973976 
	C169.471970,47.949226 168.858887,46.924477 168.081497,45.213688 
	C166.448380,43.668327 164.815262,42.122967 163.247589,40.276260 
	C163.247589,40.276260 163.093735,40.009022 163.081207,39.393742 
	C162.760223,39.155754 162.439255,38.917767 161.763519,38.151978 
	C160.190079,37.096516 158.616653,36.041050 156.631577,34.414757 
	C153.977219,33.208641 151.322845,32.002525 148.223557,30.594234 
	C149.793472,27.400166 150.799988,24.301489 152.672745,21.870018 
	C154.209625,19.874640 156.776505,18.672600 158.913910,17.091894 
	C158.913910,17.091894 158.891449,17.088718 159.286880,17.688444 
	C161.519363,17.789364 163.751831,17.890285 166.689392,17.886909 
	C170.998154,15.441525 172.219482,11.766990 170.445312,7.298467 
	C168.840637,3.256801 165.234116,2.016079 159.426849,3.371377 
	C158.695282,4.275745 157.963715,5.180113 157.026962,6.125124 
	C157.026962,6.125124 157.058548,6.331900 156.715744,6.338826 
z"/>
<path fill="#F19020" opacity="1.000000" stroke="none" 
	d="
M126.998062,215.064316 
	C135.057739,215.098389 143.117432,215.132462 151.701447,215.557648 
	C158.496582,215.956284 164.767380,215.963776 171.362213,215.973526 
	C172.118301,215.977554 172.550339,215.979309 173.265579,216.274582 
	C176.765060,216.452118 180.420563,218.990753 183.372665,215.001801 
	C184.501022,215.002243 185.253281,215.005737 186.003220,215.414322 
	C186.180969,217.163956 186.361023,218.508499 186.413757,218.902298 
	C190.982590,218.184906 194.827332,217.679535 198.619217,216.912750 
	C199.504318,216.733749 200.209991,215.667435 201.413879,215.007294 
	C203.961411,215.360657 206.093307,215.716141 208.225204,216.071625 
	C203.497513,220.391388 198.769821,224.711151 193.407532,228.931625 
	C192.514526,227.900543 192.256134,226.968735 192.029587,225.685394 
	C192.198059,224.319107 192.334671,223.304367 192.503342,222.051666 
	C186.180649,224.273270 185.407547,225.031036 185.997986,228.402023 
	C185.633530,230.800629 185.306625,232.871704 184.979706,234.942764 
	C182.291931,236.355484 179.604141,237.768188 176.496033,239.131851 
	C176.075729,239.082794 175.928085,238.876450 175.909744,238.520950 
	C173.362122,233.464249 170.864777,232.783539 167.746521,236.010406 
	C167.507111,236.010132 167.028320,236.003662 166.633606,235.991821 
	C158.826141,232.519150 158.043854,232.900467 157.716766,240.027557 
	C157.631638,240.680832 157.708420,241.392075 158.072525,241.895523 
	C158.692154,242.752289 159.492493,243.478363 160.216888,244.259354 
	C160.216888,244.259354 160.159058,244.253769 159.863556,244.170944 
	C159.051819,244.351440 158.535599,244.614761 158.019363,244.878082 
	C141.754135,248.025665 126.024101,245.781082 110.160553,239.794449 
	C109.438293,239.194473 109.143433,239.104095 108.808746,239.143509 
	C108.808746,239.143509 108.930183,239.134445 108.926399,238.793671 
	C106.948235,236.968384 104.973854,235.483887 102.999741,233.999695 
	C103.000000,234.000000 103.000610,234.000610 102.994583,233.631744 
	C102.534538,232.229568 102.080521,231.196259 101.626495,230.162949 
	C101.245636,230.234726 100.864769,230.306503 100.483910,230.378296 
	C100.321037,231.583969 100.158157,232.789642 99.635681,233.997955 
	C98.796021,234.023621 98.315971,234.046631 97.835907,234.069641 
	C97.325211,233.875427 96.814514,233.681213 96.151886,232.996674 
	C95.999153,232.332672 95.998360,232.159027 96.127983,231.684402 
	C96.171326,229.923950 96.084244,228.464478 96.388947,226.991089 
	C97.520386,225.318130 98.260040,223.659058 98.999847,222.000000 
	C99.000000,222.000000 99.000305,222.000000 99.404816,221.998016 
	C103.943840,222.301743 102.823303,219.252762 103.419090,217.015015 
	C106.231140,216.342422 108.608688,215.676910 111.364883,215.007599 
	C112.500824,215.006210 113.258133,215.008621 114.082352,215.378113 
	C116.365303,217.672974 118.394463,218.093338 120.188568,214.732483 
	C120.788544,214.207764 121.190552,213.971588 121.592552,213.735413 
	C121.963524,213.839417 122.334496,213.943420 122.868286,214.593216 
	C124.402901,217.741455 125.727608,217.843445 126.998062,215.064316 
M126.444878,234.017090 
	C123.829941,233.989487 121.086586,233.736404 120.375832,237.446136 
	C123.094078,238.324677 125.654869,239.152328 128.215668,239.979980 
	C128.594879,239.693192 128.974091,239.406418 129.353302,239.119644 
	C128.659180,237.439941 127.965050,235.760239 126.444878,234.017090 
z"/>
<path fill="#F8A22A" opacity="1.000000" stroke="none" 
	d="
M208.510468,215.914520 
	C206.093307,215.716141 203.961411,215.360657 200.948013,215.001221 
	C195.379517,215.001251 190.692520,215.005249 186.005524,215.009247 
	C185.253281,215.005737 184.501022,215.002243 182.926392,214.999329 
	C179.063461,215.326965 176.022934,215.654022 172.982391,215.981079 
	C172.550339,215.979309 172.118301,215.977554 171.068970,215.687866 
	C166.286072,214.885437 162.120453,214.370926 157.954819,213.856415 
	C165.256577,209.803772 172.806244,206.133118 179.794586,201.597565 
	C187.735367,196.443893 192.633469,188.466827 197.712936,180.134125 
	C198.541443,179.967209 198.771988,179.979935 199.418701,179.995941 
	C201.221832,179.996109 202.608780,179.992996 204.463074,179.993622 
	C211.626373,179.984604 218.322342,179.971878 225.387146,179.975021 
	C226.740738,179.986206 227.725479,179.981522 228.710220,179.976852 
	C225.033981,193.552231 218.055817,205.289841 208.510468,215.914520 
z"/>
<path fill="#F68D16" opacity="1.000000" stroke="none" 
	d="
M90.316055,187.040344 
	C90.316055,187.040344 90.416313,187.350555 90.148865,187.596222 
	C89.891838,188.011871 89.902252,188.181885 89.912666,188.351883 
	C90.054024,188.136276 90.195389,187.920654 90.336746,187.705048 
	C90.869720,188.256531 91.402695,188.808014 91.991867,189.983276 
	C92.478432,190.998108 92.908791,191.389145 93.339142,191.780197 
	C93.339142,191.780197 93.124916,191.926788 93.116608,192.203995 
	C91.639175,193.362289 90.170044,194.243393 88.228088,195.408066 
	C88.754158,195.971741 89.535591,196.809052 90.317024,197.646347 
	C93.016289,194.691406 95.419792,197.885757 97.970749,198.014465 
	C97.970749,198.014465 97.997101,197.996216 97.985779,198.399323 
	C97.695015,200.221329 97.415581,201.640198 97.063721,203.426849 
	C101.401711,203.562027 102.355209,206.247253 101.754349,209.421387 
	C104.646072,209.713486 107.178551,209.969299 109.711029,210.225113 
	C109.737930,210.921188 109.764832,211.617279 109.791733,212.313370 
	C107.450157,212.676376 105.083900,212.930542 102.778580,213.453415 
	C101.791351,213.677307 100.930946,214.460434 99.542892,214.993469 
	C92.044685,214.999390 85.016510,215.001328 77.714310,214.801041 
	C74.867760,213.144592 72.295235,211.690353 69.722702,210.236115 
	C69.722694,210.236130 69.799400,210.146133 69.743301,209.908081 
	C69.346382,209.483246 69.005577,209.296494 68.664764,209.109726 
	C64.116188,199.982712 59.567608,190.855713 55.449959,181.173065 
	C65.903038,180.401794 75.925186,180.186142 86.106041,180.219193 
	C86.609726,180.645950 86.954704,180.824020 87.299683,181.002090 
	C87.299683,181.002090 87.633888,181.277145 87.322487,181.662689 
	C85.155746,184.887695 87.142982,184.896622 89.120895,184.912430 
	C89.120895,184.912430 89.046082,185.007080 89.062912,185.291626 
	C89.491844,186.064240 89.903946,186.552292 90.316055,187.040344 
M95.581657,204.516083 
	C95.581657,204.516083 95.478310,204.576096 95.581657,204.516083 
z"/>
<path fill="#F8A42B" opacity="1.000000" stroke="none" 
	d="
M202.690186,148.366669 
	C199.692551,134.838669 194.019485,122.687454 184.632599,112.308548 
	C196.636200,112.001198 208.302628,112.006203 219.969040,112.011200 
	C226.886902,121.655579 229.630432,132.831650 231.287506,144.618759 
	C223.574646,145.007141 216.347977,144.739639 209.159515,145.146835 
	C206.949387,145.272018 204.843704,147.241638 202.690186,148.366669 
z"/>
<path fill="#F8A731" opacity="1.000000" stroke="none" 
	d="
M172.838470,92.039597 
	C172.889252,97.722740 172.940033,103.405876 172.466904,109.550720 
	C169.952286,110.027336 167.961578,110.042252 165.540268,110.044708 
	C149.740967,110.342499 134.372269,110.652733 118.768784,110.713570 
	C116.119690,110.640541 113.705376,110.816917 111.291054,110.993286 
	C111.244492,110.204094 111.197922,109.414894 111.456070,107.912155 
	C111.621674,103.507996 111.482544,99.817375 111.343422,96.126755 
	C111.278595,95.650955 111.213760,95.175163 111.432266,94.314087 
	C111.715599,93.928802 112.130272,93.875969 112.584839,93.918243 
	C131.114029,93.973396 149.188705,94.009743 167.263138,93.957535 
	C168.818939,93.953041 170.373047,93.361748 172.029358,92.833046 
	C172.299118,92.346642 172.535019,92.152161 172.838470,92.039597 
z"/>
<path fill="#F19021" opacity="1.000000" stroke="none" 
	d="
M54.851421,179.039154 
	C50.554417,165.329071 50.926289,151.469635 53.759079,137.655518 
	C53.997272,140.181137 54.000229,142.590271 54.295700,145.296860 
	C62.690208,145.594330 70.792198,145.594330 78.894188,145.594330 
	C78.899330,145.391663 78.904465,145.188980 78.909599,144.986313 
	C76.941689,144.986313 74.973778,144.986313 73.012985,144.616425 
	C75.014526,142.829788 77.008942,141.413071 79.001678,139.998169 
	C79.000000,140.000000 79.003456,139.996948 79.039764,140.296265 
	C79.481636,140.918106 79.887215,141.240601 80.292801,141.563095 
	C80.531082,141.047363 80.769363,140.531631 81.287170,139.765198 
	C82.035591,137.829391 83.023338,136.093384 82.864075,134.469894 
	C82.544182,131.209106 84.171043,129.835083 86.848312,128.997711 
	C81.749809,142.006409 80.423363,155.327515 83.160210,169.511551 
	C78.712494,172.667786 82.537422,176.016113 81.535950,178.994568 
	C72.328377,179.015701 63.589897,179.027435 54.851421,179.039154 
M75.044891,170.720779 
	C75.557663,171.756805 76.070435,172.792831 76.583206,173.828857 
	C77.374695,172.933273 78.685066,172.123550 78.850372,171.124374 
	C79.201775,169.000443 78.957664,166.777969 78.957664,164.595901 
	C78.594391,164.565216 78.231110,164.534546 77.867836,164.503860 
	C76.969658,166.316956 76.071487,168.130035 75.044891,170.720779 
z"/>
<path fill="#F68C18" opacity="1.000000" stroke="none" 
	d="
M54.003185,144.999390 
	C54.000229,142.590271 53.997272,140.181137 53.968811,137.317932 
	C54.427731,134.681122 54.912148,132.498398 55.682381,130.443878 
	C55.968193,132.034378 55.968193,133.496628 55.968193,135.288666 
	C59.102318,131.853073 63.072659,129.174469 60.275196,123.850212 
	C58.939915,125.271523 57.649063,126.645546 56.358208,128.019562 
	C58.960361,122.124229 61.562523,116.228889 64.759842,110.045937 
	C66.715919,108.424774 68.076836,107.091225 69.446159,105.749443 
	C70.789299,106.952835 72.270309,109.298531 74.216888,109.786324 
	C77.176826,110.528053 80.462952,110.072922 83.604279,109.956757 
	C86.809380,109.838242 87.497810,108.004051 86.504990,105.209717 
	C85.986496,103.750381 85.518280,102.273178 84.654068,99.686943 
	C87.589874,101.870468 89.268852,103.119225 90.655563,104.150604 
	C90.030396,106.703819 89.474281,108.975029 88.918167,111.246246 
	C92.031296,109.569008 93.910278,107.526512 95.775116,105.471199 
	C97.447701,103.627777 98.969673,102.838959 99.675278,106.166870 
	C95.224533,108.231956 95.865135,111.841339 96.135941,115.318481 
	C93.865036,118.557854 91.594139,121.797226 88.668808,125.035782 
	C86.364357,125.326637 83.741119,125.079582 83.230545,126.001976 
	C80.850304,130.302017 77.711128,134.538101 79.003357,139.996338 
	C77.008942,141.413071 75.014526,142.829788 72.544067,144.620682 
	C66.046410,144.996353 60.024799,144.997879 54.003185,144.999390 
M75.035995,131.050522 
	C75.690269,131.451904 76.344543,131.853287 76.998817,132.254684 
	C77.265594,130.621582 77.532379,128.988495 77.799156,127.355400 
	C77.156868,127.249496 76.514580,127.143593 75.872292,127.037689 
	C75.584251,128.119965 75.296219,129.202255 75.035995,131.050522 
z"/>
<path fill="#F09021" opacity="1.000000" stroke="none" 
	d="
M202.666382,148.804352 
	C204.843704,147.241638 206.949387,145.272018 209.159515,145.146835 
	C216.347977,144.739639 223.574646,145.007141 231.232849,145.015396 
	C231.480179,153.761444 231.281265,162.507034 230.574463,171.579468 
	C228.070389,170.570587 226.074219,169.234863 224.643997,168.277847 
	C224.784729,172.669312 224.901520,176.314224 225.018311,179.959137 
	C218.322342,179.971878 211.626373,179.984604 204.469452,179.619232 
	C205.632950,173.891724 207.257385,168.542328 208.896851,163.143463 
	C203.899902,161.126999 204.030975,163.646561 203.992172,166.049026 
	C203.939545,169.308075 204.461197,172.872910 200.081360,174.017868 
	C200.935104,165.759262 201.788834,157.500641 202.666382,148.804352 
z"/>
<path fill="#F9A72F" opacity="1.000000" stroke="none" 
	d="
M172.789307,61.002888 
	C172.854324,64.054626 172.919342,67.106361 172.659912,70.874222 
	C171.891983,73.392403 171.448486,75.194450 170.658524,76.965965 
	C169.204819,76.633057 168.097595,76.330681 166.522812,76.020256 
	C150.707077,76.018066 135.358871,76.023918 119.593384,76.021515 
	C117.784859,76.011787 116.393623,76.010315 114.635567,76.000763 
	C113.539536,76.036957 112.810326,76.081223 112.046921,75.652153 
	C112.001755,71.559258 111.743256,67.913742 112.118591,64.334694 
	C112.244286,63.136127 113.987106,62.107143 115.327133,61.006241 
	C116.112114,61.009312 116.560707,61.006786 117.343536,61.005699 
	C118.123367,61.000648 118.568962,60.994160 119.481628,60.993011 
	C137.282043,60.989273 154.615372,60.980198 172.158752,60.982380 
	C172.368774,60.993637 172.789307,61.002888 172.789307,61.002888 
z"/>
<path fill="#F1901E" opacity="1.000000" stroke="none" 
	d="
M166.990356,76.028305 
	C168.097595,76.330681 169.204819,76.633057 170.659607,77.355453 
	C171.623749,79.179893 172.240341,80.584328 172.856934,81.988770 
	C172.900772,85.036240 172.944626,88.083710 172.913467,91.585388 
	C172.535019,92.152161 172.299118,92.346642 171.568893,92.816879 
	C153.005707,93.004028 135.004395,92.997353 117.002258,92.534363 
	C116.335083,86.721649 115.668739,81.365242 115.002396,76.008842 
	C116.393623,76.010315 117.784859,76.011787 119.682922,76.415016 
	C121.193016,77.210945 122.194351,77.942574 123.199814,77.948273 
	C136.669556,78.024620 150.140305,78.046738 163.609177,77.914284 
	C164.742310,77.903130 165.863571,76.685448 166.990356,76.028305 
z"/>
<path fill="#F19020" opacity="1.000000" stroke="none" 
	d="
M219.927521,111.658829 
	C208.302628,112.006203 196.636200,112.001198 184.504578,112.001907 
	C183.763748,111.821426 183.488129,111.635239 183.019135,110.992981 
	C182.640366,110.252342 182.383041,110.068314 182.053802,109.984833 
	C182.053802,109.984833 181.999725,109.999275 181.989685,109.671005 
	C181.594162,108.923973 181.208679,108.505211 180.823212,108.086441 
	C180.823212,108.086441 180.926208,108.063080 180.898346,107.882957 
	C180.789108,107.396095 180.609070,107.166862 180.330368,107.015144 
	C180.246292,106.568199 180.162216,106.121246 180.267548,105.242043 
	C180.508026,104.708801 180.628403,104.568573 180.597504,104.513954 
	C180.491730,104.327026 180.332809,104.170174 180.194153,104.001854 
	C180.165222,98.986763 180.136292,93.971672 180.507019,88.482040 
	C181.594299,87.345207 182.281891,86.682922 183.358536,86.012329 
	C186.697556,86.185646 189.358383,82.172516 192.616730,85.320709 
	C192.659393,85.361923 194.125565,83.929817 194.927307,83.185394 
	C205.725098,90.359543 213.826889,99.926521 219.927521,111.658829 
z"/>
<path fill="#F19020" opacity="1.000000" stroke="none" 
	d="
M99.999390,106.006409 
	C98.969673,102.838959 97.447701,103.627777 95.775116,105.471199 
	C93.910278,107.526512 92.031296,109.569008 88.918167,111.246246 
	C89.474281,108.975029 90.030396,106.703819 90.655563,104.150604 
	C89.268852,103.119225 87.589874,101.870468 84.654068,99.686943 
	C85.518280,102.273178 85.986496,103.750381 86.504990,105.209717 
	C87.497810,108.004051 86.809380,109.838242 83.604279,109.956757 
	C80.462952,110.072922 77.176826,110.528053 74.216888,109.786324 
	C72.270309,109.298531 70.789299,106.952835 69.446159,105.749443 
	C68.076836,107.091225 66.715919,108.424774 65.013168,109.831848 
	C68.876282,104.023254 73.081230,98.141129 77.903442,92.240021 
	C79.351891,92.488022 80.183060,92.755013 81.005508,93.388992 
	C80.839165,95.070473 80.681564,96.384956 80.414207,98.614784 
	C84.528748,96.245895 85.342537,93.392822 84.985916,89.715607 
	C84.982239,89.480530 84.987358,89.010345 85.313736,88.978035 
	C86.085991,87.954201 86.531868,86.962669 86.918213,85.636292 
	C86.774040,85.091087 86.689400,84.880745 86.604759,84.670403 
	C86.604759,84.670403 86.683319,84.671196 86.999252,84.653038 
	C87.486488,84.272842 87.657791,83.910805 87.829102,83.548767 
	C90.336678,81.675629 92.733559,79.625572 95.377876,77.970970 
	C99.312645,75.508919 102.923599,77.158058 103.017776,81.729919 
	C103.201096,90.629059 102.891090,99.538361 102.149361,108.705101 
	C101.008667,107.979965 100.504028,106.993187 99.999390,106.006409 
z"/>
<path fill="#F19020" opacity="1.000000" stroke="none" 
	d="
M167.533630,142.537628 
	C154.769669,160.194031 130.358658,161.430740 116.946793,142.458160 
	C116.963188,142.046600 117.193581,141.881958 117.641998,141.926086 
	C134.379852,141.966248 150.669296,141.962280 167.097946,142.107620 
	C167.237167,142.256927 167.533630,142.537628 167.533630,142.537628 
z"/>
<path fill="#F19020" opacity="1.000000" stroke="none" 
	d="
M165.970856,110.057159 
	C167.961578,110.042252 169.952286,110.027336 172.366425,110.009354 
	C172.772766,120.925621 175.130692,132.198364 167.776718,142.299866 
	C167.533630,142.537628 167.237167,142.256927 167.113708,141.866653 
	C166.990265,141.476379 167.001831,140.992676 167.000549,140.623077 
	C166.760208,139.268982 166.521164,138.284500 166.282120,137.300018 
	C165.887619,137.269562 165.493118,137.239120 165.098618,137.208664 
	C164.732224,138.464600 164.365829,139.720520 163.536377,140.985352 
	C159.049286,140.986832 155.025253,140.979416 150.999786,140.569580 
	C150.756973,138.298111 150.515610,136.429077 150.137024,133.497543 
	C152.473099,134.278107 154.394577,134.394653 155.503250,135.403992 
	C157.575058,137.290192 158.901260,137.935516 160.262527,134.840729 
	C160.595398,134.083969 161.703842,133.159164 162.441223,133.171555 
	C167.494614,133.256516 167.191467,130.434250 166.397339,127.008392 
	C168.194839,126.999374 169.595596,126.999374 170.996353,126.999374 
	C171.004700,126.660202 171.013046,126.321037 171.021408,125.981865 
	C169.348083,125.981865 167.674774,125.981865 165.967163,125.635208 
	C163.497604,119.868584 170.480301,119.246132 171.444824,115.150597 
	C165.023392,117.814278 164.473099,117.552803 164.317444,111.965134 
	C165.079391,111.301826 165.525116,110.679489 165.970856,110.057159 
z"/>
<path fill="#EF9328" opacity="1.000000" stroke="none" 
	d="
M158.886826,17.118908 
	C156.776505,18.672600 154.209625,19.874640 152.672745,21.870018 
	C150.799988,24.301489 149.793472,27.400166 148.223557,30.594234 
	C151.322845,32.002525 153.977219,33.208641 156.497345,34.714283 
	C155.556763,35.013809 154.750397,35.013809 153.640854,35.013809 
	C155.701431,39.287155 162.640015,39.825920 160.681839,45.832054 
	C158.300262,42.629539 154.984222,41.687531 152.266068,43.286762 
	C150.142715,44.536045 149.147415,47.702618 147.303284,50.026253 
	C144.973053,51.020611 142.990387,52.005962 141.006653,52.575638 
	C141.003311,50.773514 141.001038,49.387062 141.393448,48.000294 
	C143.960907,45.975895 146.133698,43.951813 147.888428,42.317184 
	C146.673538,40.091309 145.828720,38.543495 144.983917,36.995682 
	C145.375183,36.794857 145.766464,36.594028 146.157730,36.393204 
	C148.927887,38.438938 151.698029,40.484673 154.468185,42.530407 
	C154.774704,42.111923 155.081207,41.693436 155.387726,41.274952 
	C152.614456,37.963737 149.841171,34.652523 147.348175,31.675953 
	C145.617371,32.788815 144.120605,33.751190 142.623840,34.713566 
	C141.863617,32.918682 141.103394,31.123798 140.343170,29.328911 
	C141.600952,29.134676 143.500290,29.395842 144.013412,28.672998 
	C147.601776,23.617939 150.952545,18.390255 154.255722,13.140035 
	C154.915421,12.091459 155.043304,10.708290 155.918762,9.410340 
	C157.243027,11.933822 158.064926,14.526364 158.886826,17.118908 
z"/>
<path fill="#F1911B" opacity="1.000000" stroke="none" 
	d="
M141.007736,52.991318 
	C142.990387,52.005962 144.973053,51.020611 147.394943,50.361931 
	C147.922501,51.378056 148.010818,52.067513 148.066864,53.170120 
	C148.095688,57.246792 149.059082,59.465672 153.479782,56.764397 
	C154.851166,56.736694 155.847336,56.694416 157.094299,56.996311 
	C158.787918,57.559792 160.405869,58.297817 161.634552,57.882969 
	C163.743713,57.170834 166.835358,56.073906 167.259537,54.522114 
	C167.759811,52.691986 165.863373,50.206715 164.879211,47.709763 
	C164.504120,46.607098 164.255875,45.800159 164.370163,45.033054 
	C165.903748,45.348503 167.074783,45.624119 168.245819,45.899734 
	C168.858887,46.924477 169.471970,47.949226 170.076355,49.673180 
	C170.484283,51.220821 170.900879,52.069256 171.317474,52.917686 
	C171.587204,53.701588 171.856903,54.485485 172.047791,55.660297 
	C171.968964,56.051208 171.853943,56.197720 171.709930,56.239651 
	C171.565903,56.281582 171.523300,56.669613 171.523300,56.669613 
	C171.523300,56.669613 171.901779,56.876583 171.950668,56.932671 
	C171.999557,56.988762 172.101212,57.097427 171.833008,57.347961 
	C168.160522,58.398903 164.770096,59.812553 161.349518,59.889683 
	C148.957932,60.169090 136.556000,59.961952 124.158646,60.043854 
	C122.441948,60.055199 120.729156,60.658440 119.014557,60.987671 
	C118.568962,60.994160 118.123367,61.000648 117.230232,60.777020 
	C116.512100,60.346035 116.241516,60.145168 115.969818,59.568375 
	C116.315689,56.793049 116.662666,54.393642 117.346710,51.997658 
	C118.454727,52.336086 119.225670,52.671089 119.732025,53.229610 
	C119.507477,54.472698 119.547516,55.492268 119.587555,56.511841 
	C120.391830,56.341297 121.196098,56.170753 122.375107,56.000229 
	C123.499329,55.999859 124.248802,55.999470 125.149597,56.296879 
	C126.547890,56.695164 127.794861,56.795654 129.406021,56.881916 
	C130.498611,56.877972 131.227005,56.888260 132.187134,57.187553 
	C135.041077,58.371044 137.368057,58.600204 138.318359,54.975037 
	C139.429581,54.296242 140.218658,53.643780 141.007736,52.991318 
z"/>
<path fill="#F1911B" opacity="1.000000" stroke="none" 
	d="
M140.291214,29.011520 
	C141.103394,31.123798 141.863617,32.918682 142.623840,34.713566 
	C144.120605,33.751190 145.617371,32.788815 147.348175,31.675953 
	C149.841171,34.652523 152.614456,37.963737 155.387726,41.274952 
	C155.081207,41.693436 154.774704,42.111923 154.468185,42.530407 
	C151.698029,40.484673 148.927887,38.438938 146.157730,36.393204 
	C145.766464,36.594028 145.375183,36.794857 144.983917,36.995682 
	C145.828720,38.543495 146.673538,40.091309 147.888428,42.317184 
	C146.133698,43.951813 143.960907,45.975895 141.394058,47.999989 
	C141.000000,48.000000 140.999390,48.001053 140.999115,47.570709 
	C140.590179,44.608822 140.610153,41.884007 139.592499,39.627068 
	C139.081696,38.494232 136.698166,37.761662 135.131866,37.707504 
	C134.114319,37.672321 133.043167,39.187252 131.663620,40.007637 
	C130.887878,40.006489 130.444550,40.005383 129.853455,39.710476 
	C124.931564,35.199894 127.162155,41.031811 125.714294,42.203625 
	C123.954033,42.942616 122.480980,43.476765 121.003716,43.756035 
	C120.999077,43.331223 120.998650,43.161285 121.151718,42.677383 
	C121.859184,40.881409 122.413155,39.399391 122.967117,37.917374 
	C126.511833,35.942169 130.091324,34.025700 133.582062,31.959332 
	C134.775452,31.252893 135.746262,30.170414 136.861206,28.492344 
	C137.236633,26.501600 137.569611,25.278257 137.902588,24.054913 
	C138.681473,25.601318 139.460373,27.147724 140.291214,29.011520 
z"/>
<path fill="#F1901D" opacity="1.000000" stroke="none" 
	d="
M158.900360,17.105400 
	C158.064926,14.526364 157.243027,11.933822 156.138351,9.133011 
	C155.938675,8.457548 156.021744,7.990353 156.415833,7.145676 
	C156.860657,6.640420 156.971207,6.494989 157.058548,6.331900 
	C157.058548,6.331900 157.026962,6.125124 157.467590,6.076835 
	C158.612396,5.109887 159.316559,4.191229 160.020737,3.272572 
	C165.234116,2.016079 168.840637,3.256801 170.445312,7.298467 
	C172.219482,11.766990 170.998154,15.441525 166.081726,17.828707 
	C164.982285,17.513985 164.490540,17.257465 164.122314,16.700024 
	C163.631927,15.544806 163.018021,14.690509 162.404114,13.836212 
	C162.048447,14.296600 161.692764,14.756989 161.337082,15.217377 
	C162.225067,15.811351 163.113052,16.405327 163.787811,17.251141 
	C162.013550,17.364891 160.452499,17.226805 158.891449,17.088718 
	C158.891449,17.088718 158.913910,17.091894 158.900360,17.105400 
z"/>
<path fill="#F59425" opacity="1.000000" stroke="none" 
	d="
M100.012924,214.989471 
	C100.930946,214.460434 101.791351,213.677307 102.778580,213.453415 
	C105.083900,212.930542 107.450157,212.676376 109.791733,212.313370 
	C109.764832,211.617279 109.737930,210.921188 109.711029,210.225113 
	C107.178551,209.969299 104.646072,209.713486 101.754349,209.421387 
	C102.355209,206.247253 101.401711,203.562027 97.063721,203.426849 
	C97.415581,201.640198 97.695015,200.221329 97.980881,198.414246 
	C105.689102,203.083115 113.390892,208.140198 121.342621,213.466339 
	C121.190552,213.971588 120.788544,214.207764 119.761993,214.722397 
	C117.430115,215.004242 115.722778,215.007629 114.015434,215.011017 
	C113.258133,215.008621 112.500824,215.006210 110.908524,215.003860 
	C106.719994,214.999100 103.366455,214.994293 100.012924,214.989471 
z"/>
<path fill="#F19020" opacity="1.000000" stroke="none" 
	d="
M69.799316,210.565811 
	C72.295235,211.690353 74.867760,213.144592 77.907509,215.142303 
	C80.221809,216.123535 82.058998,216.881836 83.917839,216.939255 
	C89.614449,217.115250 95.319366,217.022263 100.980118,217.373627 
	C100.292885,219.142242 99.646591,220.571121 99.000305,222.000000 
	C99.000305,222.000000 99.000000,222.000000 98.702797,221.980499 
	C97.936478,221.645432 97.467361,221.329880 96.991531,220.640594 
	C95.180893,217.988281 90.320831,218.395996 87.851524,221.347626 
	C86.102959,222.463516 84.503815,223.252289 82.904663,224.041061 
	C82.359047,223.685837 81.813438,223.330612 81.037598,222.628357 
	C80.807365,222.281342 80.525841,222.068466 80.525848,222.068466 
	C76.975876,218.344147 73.425896,214.619827 69.799316,210.565811 
M86.517410,218.410141 
	C86.517410,218.410141 86.585526,218.523605 86.517410,218.410141 
z"/>
<path fill="#EF9328" opacity="1.000000" stroke="none" 
	d="
M111.206726,111.456413 
	C113.705376,110.816917 116.119690,110.640541 118.767548,110.973198 
	C119.001839,111.655029 119.002602,111.827820 118.995895,112.383957 
	C118.326233,117.176895 117.664032,121.586494 116.669243,125.999321 
	C115.893288,125.995758 115.449936,125.988976 114.996574,125.613022 
	C114.357971,124.581116 113.729370,123.918381 113.100769,123.255638 
	C112.769279,124.197418 112.437782,125.139198 112.196274,126.286636 
	C112.461151,126.750771 112.697174,126.927704 113.016876,127.318359 
	C113.359322,128.075943 113.679207,128.538269 114.050980,129.410217 
	C114.351562,132.986801 114.600258,136.153793 114.848961,139.320770 
	C113.592651,134.308319 111.951576,129.352509 111.202408,124.265381 
	C110.608658,120.233612 111.108261,116.040825 111.206726,111.456413 
z"/>
<path fill="#F19020" opacity="1.000000" stroke="none" 
	d="
M114.861603,139.517014 
	C114.600258,136.153793 114.351562,132.986801 114.346100,129.300537 
	C116.593758,131.390549 118.598183,133.999847 120.602608,136.609161 
	C120.267860,136.886017 119.933113,137.162888 119.598358,137.439743 
	C121.199577,137.439743 122.800797,137.439743 124.402359,137.442322 
	C126.249474,132.140305 127.222664,131.817841 133.098129,134.933746 
	C134.094009,135.461899 134.790314,136.554916 135.625031,137.386948 
	C134.516586,137.671295 133.378571,138.274124 132.305786,138.174484 
	C129.987457,137.959198 127.820282,137.566971 127.548798,141.004227 
	C123.795853,141.299622 120.494713,141.590790 117.193581,141.881958 
	C117.193581,141.881958 116.963188,142.046600 116.850235,142.132233 
	C116.418221,142.122009 116.190315,141.922195 115.938126,141.152679 
	C115.675072,140.374878 115.442375,140.151459 115.124588,140.016647 
	C115.124588,140.016647 114.874260,139.713257 114.861603,139.517014 
z"/>
<path fill="#EF9328" opacity="1.000000" stroke="none" 
	d="
M117.009651,51.994240 
	C116.662666,54.393642 116.315689,56.793049 115.754425,59.691505 
	C115.269165,60.401016 115.086037,60.671043 114.990746,61.000645 
	C113.987106,62.107143 112.244286,63.136127 112.118591,64.334694 
	C111.743256,67.913742 112.001755,71.559258 112.079178,76.039566 
	C114.122124,82.292618 113.306137,87.679276 112.107712,93.268074 
	C112.102417,93.470978 112.130272,93.875969 112.130272,93.875969 
	C112.130272,93.875969 111.715599,93.928802 111.508865,93.959290 
	C111.251678,82.413811 110.945702,70.829994 111.300484,59.266457 
	C111.412529,55.614338 113.292389,52.016457 114.913651,48.281933 
	C115.968277,48.449959 116.472443,48.729805 116.986786,49.382492 
	C117.001190,50.501629 117.005424,51.247936 117.009651,51.994240 
z"/>
<path fill="#F09017" opacity="1.000000" stroke="none" 
	d="
M200.044662,174.033020 
	C204.461197,172.872910 203.939545,169.308075 203.992172,166.049026 
	C204.030975,163.646561 203.899902,161.126999 208.896851,163.143463 
	C207.257385,168.542328 205.632950,173.891724 204.002106,179.615509 
	C202.608780,179.992996 201.221832,179.996109 199.417999,179.604828 
	C198.980057,178.427383 198.959030,177.644333 198.937988,176.861267 
	C199.051254,176.378143 199.164520,175.895020 199.572021,175.007309 
	C199.951523,174.452148 200.009125,174.291656 200.039062,174.121216 
	C200.039062,174.121216 200.007965,174.048172 200.044662,174.033020 
z"/>
<path fill="#EE932C" opacity="1.000000" stroke="none" 
	d="
M160.621872,244.271896 
	C159.492493,243.478363 158.692154,242.752289 158.072525,241.895523 
	C157.708420,241.392075 157.631638,240.680832 158.101471,240.022095 
	C161.527649,238.655319 164.277985,237.329483 167.028320,236.003662 
	C167.028320,236.003662 167.507111,236.010132 168.064499,236.164703 
	C171.057281,237.171677 173.492691,238.024063 175.928085,238.876450 
	C175.928085,238.876450 176.075729,239.082794 176.138000,239.193665 
	C171.142471,240.964508 166.084671,242.624466 160.621872,244.271896 
z"/>
<path fill="#E98F0F" opacity="1.000000" stroke="none" 
	d="
M119.481628,60.993011 
	C120.729156,60.658440 122.441948,60.055199 124.158646,60.043854 
	C136.556000,59.961952 148.957932,60.169090 161.349518,59.889683 
	C164.770096,59.812553 168.160522,58.398903 171.911209,57.329659 
	C172.257629,57.060825 172.417801,57.035755 172.417801,57.035755 
	C172.561417,57.777340 172.705017,58.518925 172.602814,59.746910 
	C172.160126,60.445599 172.024017,60.691536 171.948715,60.971123 
	C154.615372,60.980198 137.282043,60.989273 119.481628,60.993011 
z"/>
<path fill="#F88C09" opacity="1.000000" stroke="none" 
	d="
M79.001678,139.998169 
	C77.711128,134.538101 80.850304,130.302017 83.230545,126.001976 
	C83.741119,125.079582 86.364357,125.326637 88.406845,125.212646 
	C88.799301,125.390320 88.767334,125.742020 88.277069,126.005394 
	C87.572754,126.965149 87.358688,127.661530 87.144623,128.357910 
	C87.144623,128.357910 87.115471,128.733002 86.981888,128.865356 
	C84.171043,129.835083 82.544182,131.209106 82.864075,134.469894 
	C83.023338,136.093384 82.035591,137.829391 80.953049,139.760223 
	C79.894081,140.002945 79.448769,139.999954 79.003456,139.996948 
	C79.003456,139.996948 79.000000,140.000000 79.001678,139.998169 
z"/>
<path fill="#F28F11" opacity="1.000000" stroke="none" 
	d="
M164.007614,44.993221 
	C164.255875,45.800159 164.504120,46.607098 164.839752,48.058613 
	C163.896500,49.456257 162.865891,50.209324 161.806656,50.603939 
	C161.515762,48.838421 161.253510,47.431355 160.991241,46.024288 
	C162.640015,39.825920 155.701431,39.287155 153.640854,35.013809 
	C154.750397,35.013809 155.556763,35.013809 156.703171,34.999699 
	C158.616653,36.041050 160.190079,37.096516 161.999374,38.702545 
	C162.521393,39.505085 162.807571,39.757053 163.093735,40.009022 
	C163.093735,40.009022 163.247589,40.276260 163.188324,40.807037 
	C163.421906,42.556282 163.714767,43.774754 164.007614,44.993221 
z"/>
<path fill="#F28F11" opacity="1.000000" stroke="none" 
	d="
M194.791687,82.945816 
	C194.125565,83.929817 192.659393,85.361923 192.616730,85.320709 
	C189.358383,82.172516 186.697556,86.185646 183.085999,85.895523 
	C181.694305,85.508461 180.964172,85.229897 180.234055,84.951324 
	C180.204483,83.913651 180.174927,82.875969 180.612656,81.451797 
	C184.387634,82.255676 187.554550,82.439148 190.323166,79.773209 
	C190.802628,79.992683 191.282104,80.212158 192.019318,80.914619 
	C192.600143,81.569313 192.923233,81.741013 193.246307,81.912720 
	C193.716232,82.177231 194.186172,82.441734 194.791687,82.945816 
z"/>
<path fill="#F1911B" opacity="1.000000" stroke="none" 
	d="
M125.029724,10.098560 
	C131.400909,9.733059 131.498459,15.550916 133.803528,19.726583 
	C132.783890,20.586918 131.860550,20.818796 130.937195,21.050674 
	C130.937195,21.050674 130.993149,20.999119 130.951569,20.674339 
	C130.055939,19.466885 128.941391,18.719191 128.400040,17.674469 
	C127.130684,15.224780 126.135750,12.632888 125.029724,10.098560 
z"/>
<path fill="#F09017" opacity="1.000000" stroke="none" 
	d="
M225.387161,179.975006 
	C224.901520,176.314224 224.784729,172.669312 224.643997,168.277847 
	C226.074219,169.234863 228.070389,170.570587 230.414291,171.957886 
	C230.204437,174.448349 229.646866,176.887268 228.899750,179.651520 
	C227.725479,179.981522 226.740738,179.986206 225.387161,179.975006 
z"/>
<path fill="#EE9637" opacity="1.000000" stroke="none" 
	d="
M124.673157,10.064949 
	C126.135750,12.632888 127.130684,15.224780 128.400040,17.674469 
	C128.941391,18.719191 130.055939,19.466885 130.934723,20.708385 
	C130.214981,21.330477 129.470535,21.593737 128.268524,21.970858 
	C127.596741,22.183798 127.395340,22.304300 127.206764,22.446226 
	C127.013466,22.549622 126.820160,22.653019 126.292305,22.390827 
	C123.985176,19.354504 122.012589,16.683767 120.040009,14.013029 
	C121.465530,12.685797 122.891052,11.358567 124.673157,10.064949 
z"/>
<path fill="#EE9432" opacity="1.000000" stroke="none" 
	d="
M185.320190,234.890427 
	C185.306625,232.871704 185.633530,230.800629 186.350143,228.342743 
	C188.492477,227.316254 190.245102,226.676590 191.997742,226.036926 
	C192.256134,226.968735 192.514526,227.900543 193.091919,229.032928 
	C190.827484,231.101700 188.244064,232.969894 185.320190,234.890427 
z"/>
<path fill="#EB8D13" opacity="1.000000" stroke="none" 
	d="
M157.573975,213.883606 
	C162.120453,214.370926 166.286072,214.885437 170.744949,215.685608 
	C164.767380,215.963776 158.496582,215.956284 152.118164,215.568268 
	C153.738068,214.762085 155.465591,214.336441 157.573975,213.883606 
z"/>
<path fill="#ED9A3B" opacity="1.000000" stroke="none" 
	d="
M190.112366,79.471527 
	C187.554550,82.439148 184.387634,82.255676 180.703766,81.072083 
	C182.368759,75.922287 184.631424,75.471123 190.112366,79.471527 
z"/>
<path fill="#F59425" opacity="1.000000" stroke="none" 
	d="
M82.005058,178.985168 
	C82.537422,176.016113 78.712494,172.667786 83.213715,169.948059 
	C84.826088,173.334534 86.011269,176.779953 87.248062,180.613724 
	C86.954704,180.824020 86.609726,180.645950 85.886887,179.944183 
	C84.341034,179.275360 83.173050,179.130264 82.005058,178.985168 
z"/>
<path fill="#F1901E" opacity="1.000000" stroke="none" 
	d="
M119.842438,14.290714 
	C122.012589,16.683767 123.985176,19.354504 125.963699,22.378799 
	C120.750092,22.421402 118.979958,19.438133 119.842438,14.290714 
z"/>
<path fill="#F88C09" opacity="1.000000" stroke="none" 
	d="
M56.205246,128.286743 
	C57.649063,126.645546 58.939915,125.271523 60.275196,123.850212 
	C63.072659,129.174469 59.102318,131.853073 55.968193,135.288666 
	C55.968193,133.496628 55.968193,132.034378 55.929852,130.167908 
	C55.945103,129.360458 55.998695,128.957184 56.205246,128.286743 
z"/>
<path fill="#EE932C" opacity="1.000000" stroke="none" 
	d="
M102.999481,233.999390 
	C104.973854,235.483887 106.948235,236.968384 108.880783,238.833984 
	C105.984634,238.060089 103.130333,236.905060 100.108421,235.407440 
	C99.940811,235.064850 100.075714,234.896362 100.236847,234.824677 
	C100.267944,234.505417 100.137901,234.257828 100.004562,234.005920 
	C100.001266,234.001587 99.995277,233.995316 99.995285,233.995316 
	C100.158157,232.789642 100.321037,231.583969 100.483910,230.378296 
	C100.864769,230.306503 101.245636,230.234726 101.626495,230.162949 
	C102.080521,231.196259 102.534538,232.229568 102.855476,233.685471 
	C102.814751,234.071838 102.907112,234.035629 102.999481,233.999390 
z"/>
<path fill="#F28F11" opacity="1.000000" stroke="none" 
	d="
M95.997169,227.004990 
	C96.084244,228.464478 96.171326,229.923950 95.824722,231.697433 
	C95.190834,232.040970 94.990608,232.070526 94.790382,232.100098 
	C94.295937,231.877518 93.801491,231.654938 93.119659,230.833435 
	C91.542931,229.506485 90.153595,228.778458 88.764267,228.050446 
	C88.486099,228.044647 88.233818,227.960846 87.963501,227.276581 
	C87.945717,226.501022 87.971870,226.247940 88.217537,225.888504 
	C88.711212,225.583176 88.895363,225.320999 89.324066,224.992126 
	C90.104736,224.991180 90.550850,224.993668 91.331047,224.998108 
	C92.109863,225.000320 92.554588,225.000565 93.167313,225.254517 
	C94.222603,226.007141 95.109886,226.506073 95.997169,227.004990 
z"/>
<path fill="#E58505" opacity="1.000000" stroke="none" 
	d="
M81.535950,178.994568 
	C83.173050,179.130264 84.341034,179.275360 85.728180,179.695496 
	C75.925186,180.186142 65.903038,180.401794 55.512779,180.795502 
	C55.040440,180.548264 54.936214,180.122940 54.841705,179.368408 
	C63.589897,179.027435 72.328377,179.015701 81.535950,178.994568 
z"/>
<path fill="#EE932C" opacity="1.000000" stroke="none" 
	d="
M99.675278,106.166870 
	C100.504028,106.993187 101.008667,107.979965 101.878090,109.033188 
	C100.408607,111.066376 98.574348,113.033134 96.438019,115.159187 
	C95.865135,111.841339 95.224533,108.231956 99.675278,106.166870 
z"/>
<path fill="#F59425" opacity="1.000000" stroke="none" 
	d="
M97.833481,197.714737 
	C95.419792,197.885757 93.016289,194.691406 90.317024,197.646347 
	C89.535591,196.809052 88.754158,195.971741 88.228088,195.408066 
	C90.170044,194.243393 91.639175,193.362289 93.205643,192.109558 
	C94.767387,193.630264 96.231796,195.522644 97.833481,197.714737 
z"/>
<path fill="#EE9637" opacity="1.000000" stroke="none" 
	d="
M131.112259,21.332737 
	C131.860550,20.818796 132.783890,20.586918 133.930008,20.063871 
	C135.341766,20.991678 136.530777,22.210653 137.811188,23.742271 
	C137.569611,25.278257 137.236633,26.501600 136.834930,28.130342 
	C134.939911,26.228760 133.113617,23.921778 131.112259,21.332737 
z"/>
<path fill="#EE932C" opacity="1.000000" stroke="none" 
	d="
M87.998016,225.994873 
	C87.971870,226.247940 87.945717,226.501022 87.828094,227.127121 
	C86.227257,226.546906 84.717896,225.593689 83.056602,224.340759 
	C84.503815,223.252289 86.102959,222.463516 88.170364,221.367584 
	C89.425720,221.373627 90.212830,221.686813 90.999931,222.374725 
	C90.998940,223.498352 90.997948,224.247253 90.996956,224.996155 
	C90.550850,224.993668 90.104736,224.991180 89.106682,225.100906 
	C88.284279,225.413254 88.098709,225.673828 87.998016,225.994873 
z"/>
<path fill="#EE9432" opacity="1.000000" stroke="none" 
	d="
M122.645966,38.024132 
	C122.413155,39.399391 121.859184,40.881409 120.903687,42.843018 
	C120.322792,43.878723 120.143410,44.434837 119.723709,44.990509 
	C119.483383,44.990063 119.002792,44.997906 118.780228,45.103863 
	C118.280617,45.409809 118.091545,45.673004 117.643936,45.997093 
	C116.835396,45.987156 116.373367,45.979542 115.911331,45.971931 
	C118.049156,43.358250 120.186974,40.744568 122.645966,38.024132 
z"/>
<path fill="#F1911B" opacity="1.000000" stroke="none" 
	d="
M119.002792,44.997906 
	C119.002792,44.997906 119.483383,44.990063 119.985870,44.995121 
	C120.662842,45.002720 120.837341,45.005260 121.179413,45.258553 
	C121.233192,46.339787 121.119392,47.170269 120.721275,47.884727 
	C119.283508,48.182358 118.130058,48.596008 116.976608,49.009659 
	C116.472443,48.729805 115.968277,48.449959 115.194336,48.065880 
	C115.097466,47.414486 115.270355,46.867325 115.677292,46.146042 
	C116.373367,45.979542 116.835396,45.987156 117.865738,45.889877 
	C118.711052,45.585812 118.900642,45.323452 119.002792,44.997906 
z"/>
<path fill="#F8A731" opacity="1.000000" stroke="none" 
	d="
M172.953201,81.541588 
	C172.240341,80.584328 171.623749,79.179893 171.006073,77.385971 
	C171.448486,75.194450 171.891983,73.392403 172.575470,71.325890 
	C172.893478,74.405754 172.971466,77.750076 172.953201,81.541588 
z"/>
<path fill="#EF9328" opacity="1.000000" stroke="none" 
	d="
M164.370163,45.033054 
	C163.714767,43.774754 163.421906,42.556282 163.155609,40.957710 
	C164.815262,42.122967 166.448380,43.668327 168.163666,45.556709 
	C167.074783,45.624119 165.903748,45.348503 164.370163,45.033054 
z"/>
<path fill="#EE9637" opacity="1.000000" stroke="none" 
	d="
M84.987358,89.010345 
	C84.987358,89.010345 84.982239,89.480530 84.731445,89.835266 
	C83.988785,90.458168 83.496933,90.726334 82.973381,90.693497 
	C82.371841,90.008667 81.801994,89.624847 81.184113,89.190430 
	C81.136070,89.139847 81.040588,89.038109 81.040588,89.038109 
	C82.116692,88.030502 83.192787,87.022903 84.664993,86.036804 
	C85.061089,86.058311 85.223808,86.224579 85.143288,86.564529 
	C85.037628,87.606438 85.012497,88.308395 84.987358,89.010345 
z"/>
<path fill="#EF9328" opacity="1.000000" stroke="none" 
	d="
M111.257149,96.569366 
	C111.482544,99.817375 111.621674,103.507996 111.556862,107.527275 
	C111.292244,104.241280 111.231560,100.626625 111.257149,96.569366 
z"/>
<path fill="#EE9637" opacity="1.000000" stroke="none" 
	d="
M81.014236,93.021996 
	C80.183060,92.755013 79.351891,92.488022 78.217453,92.085953 
	C78.767723,91.063354 79.621262,90.175835 80.757690,89.163208 
	C81.040588,89.038109 81.136070,89.139847 81.139687,89.454414 
	C81.441788,90.182098 81.740273,90.595215 82.011909,91.307274 
	C81.661453,92.078148 81.337845,92.550072 81.014236,93.021996 
z"/>
<path fill="#EF9328" opacity="1.000000" stroke="none" 
	d="
M159.089172,17.388580 
	C160.452499,17.226805 162.013550,17.364891 163.787292,17.251488 
	C164.000000,17.000000 163.998779,17.000946 163.998779,17.000946 
	C164.490540,17.257465 164.982285,17.513985 165.729187,17.880856 
	C163.751831,17.890285 161.519363,17.789364 159.089172,17.388580 
z"/>
<path fill="#F59425" opacity="1.000000" stroke="none" 
	d="
M89.111092,184.608276 
	C87.142982,184.896622 85.155746,184.887695 87.363968,181.875092 
	C88.178329,182.569336 88.639809,183.436737 89.111092,184.608276 
z"/>
<path fill="#EE932C" opacity="1.000000" stroke="none" 
	d="
M88.926346,228.344193 
	C90.153595,228.778458 91.542931,229.506485 92.974602,230.598404 
	C91.707436,230.187531 90.397926,229.412735 88.926346,228.344193 
z"/>
<path fill="#EA8910" opacity="1.000000" stroke="none" 
	d="
M126.618927,214.890747 
	C125.727608,217.843445 124.402901,217.741455 123.014084,214.725616 
	C124.077980,214.447205 125.158890,214.582199 126.618927,214.890747 
z"/>
<path fill="#ED9A3B" opacity="1.000000" stroke="none" 
	d="
M180.137527,85.331154 
	C180.964172,85.229897 181.694305,85.508461 182.696960,85.903839 
	C182.281891,86.682922 181.594299,87.345207 180.574768,88.022125 
	C180.175537,87.261490 180.108261,86.486237 180.137527,85.331154 
z"/>
<path fill="#EF9328" opacity="1.000000" stroke="none" 
	d="
M159.723785,3.321973 
	C159.316559,4.191229 158.612396,5.109887 157.570190,6.056514 
	C157.963715,5.180113 158.695282,4.275745 159.723785,3.321973 
z"/>
<path fill="#F09021" opacity="1.000000" stroke="none" 
	d="
M198.666962,177.068909 
	C198.959030,177.644333 198.980057,178.427383 199.001801,179.601547 
	C198.771988,179.979935 198.541443,179.967209 197.964966,179.923676 
	C197.877991,179.020737 198.136948,178.148651 198.666962,177.068909 
z"/>
<path fill="#EF9328" opacity="1.000000" stroke="none" 
	d="
M171.309448,52.553135 
	C170.900879,52.069256 170.484283,51.220821 170.109085,49.975243 
	C170.534119,50.448265 170.917770,51.318424 171.309448,52.553135 
z"/>
<path fill="#EE932C" opacity="1.000000" stroke="none" 
	d="
M97.991570,234.326569 
	C98.315971,234.046631 98.796021,234.023621 99.635681,233.997955 
	C99.995277,233.995316 100.001266,234.001587 100.010681,234.228210 
	C100.020103,234.454849 100.075714,234.896362 100.075714,234.896362 
	C100.075714,234.896362 99.940811,235.064850 99.871552,235.148804 
	C99.250595,235.016342 98.698906,234.799927 97.991570,234.326569 
z"/>
<path fill="#EE932C" opacity="1.000000" stroke="none" 
	d="
M158.321030,244.927673 
	C158.535599,244.614761 159.051819,244.351440 159.872345,244.143250 
	C159.658676,244.457993 159.140686,244.717621 158.321030,244.927673 
z"/>
<path fill="#ED9A3B" opacity="1.000000" stroke="none" 
	d="
M180.837662,108.388962 
	C181.208679,108.505211 181.594162,108.923973 182.001862,109.645813 
	C181.633438,109.529762 181.242767,109.110619 180.837662,108.388962 
z"/>
<path fill="#F59425" opacity="1.000000" stroke="none" 
	d="
M93.278412,191.490479 
	C92.908791,191.389145 92.478432,190.998108 92.033600,190.285782 
	C92.418640,190.376587 92.818153,190.788681 93.278412,191.490479 
z"/>
<path fill="#F59425" opacity="1.000000" stroke="none" 
	d="
M90.268074,186.717789 
	C89.903946,186.552292 89.491844,186.064240 89.084747,185.235428 
	C89.466530,185.394852 89.843315,185.895050 90.268074,186.717789 
z"/>
<path fill="#EE9637" opacity="1.000000" stroke="none" 
	d="
M86.343369,84.736038 
	C86.689400,84.880745 86.774040,85.091087 86.622452,85.657265 
	C85.998749,86.083588 85.611275,86.154083 85.223808,86.224579 
	C85.223808,86.224579 85.061089,86.058311 84.980240,85.974617 
	C85.293579,85.527840 85.687775,85.164757 86.343369,84.736038 
z"/>
<path fill="#F19021" opacity="1.000000" stroke="none" 
	d="
M87.433594,128.151138 
	C87.358688,127.661530 87.572754,126.965149 88.148422,126.126335 
	C88.247543,126.637398 87.985054,127.290886 87.433594,128.151138 
z"/>
<path fill="#EE9637" opacity="1.000000" stroke="none" 
	d="
M87.568069,83.676193 
	C87.657791,83.910805 87.486488,84.272842 87.005539,84.691818 
	C86.899620,84.433701 87.103340,84.118660 87.568069,83.676193 
z"/>
<path fill="#ED9A3B" opacity="1.000000" stroke="none" 
	d="
M180.284149,107.250946 
	C180.609070,107.166862 180.789108,107.396095 180.870209,107.927635 
	C180.520950,108.061798 180.310287,107.839905 180.284149,107.250946 
z"/>
<path fill="#ED9A3B" opacity="1.000000" stroke="none" 
	d="
M180.119751,104.248383 
	C180.332809,104.170174 180.491730,104.327026 180.597504,104.513954 
	C180.628403,104.568573 180.508026,104.708801 180.313385,104.902222 
	C180.128296,104.828072 180.086823,104.661491 180.119751,104.248383 
z"/>
<path fill="#EE932C" opacity="1.000000" stroke="none" 
	d="
M94.900452,232.352783 
	C94.990608,232.070526 95.190834,232.040970 95.694305,231.998398 
	C95.998360,232.159027 95.999153,232.332672 95.994308,232.766907 
	C95.662628,232.886826 95.336578,232.746155 94.900452,232.352783 
z"/>
<path fill="#ED9A3B" opacity="1.000000" stroke="none" 
	d="
M182.109818,110.232071 
	C182.383041,110.068314 182.640366,110.252342 182.915009,110.761780 
	C182.724777,110.817543 182.445297,110.648422 182.109818,110.232071 
z"/>
<path fill="#F19020" opacity="1.000000" stroke="none" 
	d="
M193.142715,81.645508 
	C192.923233,81.741013 192.600143,81.569313 192.156540,81.143509 
	C192.370377,81.052376 192.704758,81.215340 193.142715,81.645508 
z"/>
<path fill="#F1911B" opacity="1.000000" stroke="none" 
	d="
M172.488754,56.826771 
	C172.417801,57.035755 172.257629,57.060825 172.179413,57.079124 
	C172.101212,57.097427 171.999557,56.988762 171.956848,56.762314 
	C171.914124,56.535870 171.853943,56.197720 171.853943,56.197720 
	C171.853943,56.197720 171.968964,56.051208 172.027802,55.978966 
	C172.368912,56.060883 172.526596,56.297901 172.488754,56.826771 
z"/>
<path fill="#EE932C" opacity="1.000000" stroke="none" 
	d="
M108.927834,239.359665 
	C109.143433,239.104095 109.438293,239.194473 109.834366,239.604004 
	C109.975410,239.793335 109.482513,239.806946 109.482513,239.806946 
	C109.482513,239.806946 109.046921,239.575821 108.927834,239.359665 
z"/>
<path fill="#F8A731" opacity="1.000000" stroke="none" 
	d="
M172.158752,60.982380 
	C172.024017,60.691536 172.160126,60.445599 172.539368,60.125366 
	C172.784500,60.178116 172.847275,60.338814 172.849670,60.751198 
	C172.789307,61.002888 172.368774,60.993637 172.158752,60.982380 
z"/>
<path fill="#F19020" opacity="1.000000" stroke="none" 
	d="
M68.785507,209.373795 
	C69.005577,209.296494 69.346382,209.483246 69.766220,209.962585 
	C69.532242,210.049377 69.219246,209.843613 68.785507,209.373795 
z"/>
<path fill="#EE932C" opacity="1.000000" stroke="none" 
	d="
M80.516220,222.186432 
	C80.525841,222.068466 80.807365,222.281342 80.859535,222.350830 
	C80.911705,222.420319 80.506592,222.304398 80.516220,222.186432 
z"/>
<path fill="#EF9328" opacity="1.000000" stroke="none" 
	d="
M163.087463,39.701382 
	C162.807571,39.757053 162.521393,39.505085 162.176758,38.966446 
	C162.439255,38.917767 162.760223,39.155754 163.087463,39.701382 
z"/>
<path fill="#EF9328" opacity="1.000000" stroke="none" 
	d="
M156.887146,6.335363 
	C156.971207,6.494989 156.860657,6.640420 156.614456,6.847077 
	C156.398315,6.666500 156.469559,6.470788 156.887146,6.335363 
z"/>
<path fill="#EF9328" opacity="1.000000" stroke="none" 
	d="
M115.135277,140.278015 
	C115.442375,140.151459 115.675072,140.374878 115.881859,140.926422 
	C115.676010,140.957062 115.410988,140.748230 115.135277,140.278015 
z"/>
<path fill="#F1901E" opacity="1.000000" stroke="none" 
	d="
M127.400925,22.456966 
	C127.395340,22.304300 127.596741,22.183798 127.970245,21.996309 
	C128.035233,22.174780 127.857094,22.361383 127.400925,22.456966 
z"/>
<path fill="#F09021" opacity="1.000000" stroke="none" 
	d="
M199.887390,174.181488 
	C200.009125,174.291656 199.951523,174.452148 199.796051,174.707108 
	C199.525040,174.618164 199.528336,174.428253 199.887390,174.181488 
z"/>
<path fill="#EA8910" opacity="1.000000" stroke="none" 
	d="
M101.021057,217.033875 
	C95.319366,217.022263 89.614449,217.115250 83.917839,216.939255 
	C82.058998,216.881836 80.221809,216.123535 78.181534,215.344513 
	C85.016510,215.001328 92.044685,214.999390 99.542892,214.993469 
	C103.366455,214.994293 106.719994,214.999100 110.529884,215.007645 
	C108.608688,215.676910 106.231140,216.342422 103.091888,217.011826 
	C101.893822,217.021759 101.457436,217.027817 101.021057,217.033875 
z"/>
<path fill="#EB8D13" opacity="1.000000" stroke="none" 
	d="
M186.003220,215.414322 
	C190.692520,215.005249 195.379517,215.001251 200.532379,215.003326 
	C200.209991,215.667435 199.504318,216.733749 198.619217,216.912750 
	C194.827332,217.679535 190.982590,218.184906 186.413757,218.902298 
	C186.361023,218.508499 186.180969,217.163956 186.003220,215.414322 
z"/>
<path fill="#F28F11" opacity="1.000000" stroke="none" 
	d="
M126.857903,234.048813 
	C127.965050,235.760239 128.659180,237.439941 129.353302,239.119644 
	C128.974091,239.406418 128.594879,239.693192 128.215668,239.979980 
	C125.654869,239.152328 123.094078,238.324677 120.375832,237.446136 
	C121.086586,233.736404 123.829941,233.989487 126.857903,234.048813 
z"/>
<path fill="#F28F11" opacity="1.000000" stroke="none" 
	d="
M166.633606,235.991821 
	C164.277985,237.329483 161.527649,238.655319 158.392609,239.986603 
	C158.043854,232.900467 158.826141,232.519150 166.633606,235.991821 
z"/>
<path fill="#EE932C" opacity="1.000000" stroke="none" 
	d="
M96.388947,226.991089 
	C95.109886,226.506073 94.222603,226.007141 93.167725,224.879395 
	C93.000366,223.500656 93.000595,222.750748 93.345810,221.968964 
	C94.793282,221.629517 95.895760,221.321915 96.998245,221.014313 
	C97.467361,221.329880 97.936478,221.645432 98.702644,221.980499 
	C98.260040,223.659058 97.520386,225.318130 96.388947,226.991089 
z"/>
<path fill="#F28F11" opacity="1.000000" stroke="none" 
	d="
M175.909744,238.520950 
	C173.492691,238.024063 171.057281,237.171677 168.303909,236.164978 
	C170.864777,232.783539 173.362122,233.464249 175.909744,238.520950 
z"/>
<path fill="#F88C09" opacity="1.000000" stroke="none" 
	d="
M192.029572,225.685394 
	C190.245102,226.676590 188.492477,227.316254 186.387695,228.015198 
	C185.407547,225.031036 186.180649,224.273270 192.503342,222.051666 
	C192.334671,223.304367 192.198059,224.319107 192.029572,225.685394 
z"/>
<path fill="#EB8D13" opacity="1.000000" stroke="none" 
	d="
M173.265579,216.274582 
	C176.022934,215.654022 179.063461,215.326965 182.550278,215.002396 
	C180.420563,218.990753 176.765060,216.452118 173.265579,216.274582 
z"/>
<path fill="#EE932C" opacity="1.000000" stroke="none" 
	d="
M100.980118,217.373627 
	C101.457436,217.027817 101.893822,217.021759 102.657394,217.018890 
	C102.823303,219.252762 103.943840,222.301743 99.404816,221.998016 
	C99.646591,220.571121 100.292885,219.142242 100.980118,217.373627 
z"/>
<path fill="#EA8910" opacity="1.000000" stroke="none" 
	d="
M114.082352,215.378113 
	C115.722778,215.007629 117.430115,215.004242 119.564034,215.010925 
	C118.394463,218.093338 116.365303,217.672974 114.082352,215.378113 
z"/>
<path fill="#F59425" opacity="1.000000" stroke="none" 
	d="
M90.259987,187.702454 
	C90.195389,187.920654 90.054024,188.136276 89.912666,188.351883 
	C89.902252,188.181885 89.891838,188.011871 90.019333,187.695160 
	C90.157249,187.548447 90.183220,187.699860 90.259987,187.702454 
z"/>
<path fill="#F59425" opacity="1.000000" stroke="none" 
	d="
M95.529984,204.546082 
	C95.478310,204.576096 95.581657,204.516083 95.529984,204.546082 
z"/>
<path fill="#E28A03" opacity="1.000000" stroke="none" 
	d="
M112.584839,93.918243 
	C112.130272,93.875969 112.102417,93.470978 112.511200,93.246330 
	C114.281013,93.011353 115.642052,93.001015 117.003082,92.990677 
	C135.004395,92.997353 153.005707,93.004028 171.467468,93.026871 
	C170.373047,93.361748 168.818939,93.953041 167.263138,93.957535 
	C149.188705,94.009743 131.114029,93.973396 112.584839,93.918243 
z"/>
<path fill="#E98F0F" opacity="1.000000" stroke="none" 
	d="
M119.003357,112.000610 
	C119.002602,111.827820 119.001839,111.655029 119.002319,111.222603 
	C134.372269,110.652733 149.740967,110.342499 165.540268,110.044708 
	C165.525116,110.679489 165.079391,111.301826 163.848648,111.962723 
	C148.376877,112.001068 133.690109,112.000839 119.003357,112.000610 
z"/>
<path fill="#F28F11" opacity="1.000000" stroke="none" 
	d="
M75.109100,170.331940 
	C76.071487,168.130035 76.969658,166.316956 77.867836,164.503860 
	C78.231110,164.534546 78.594391,164.565216 78.957664,164.595901 
	C78.957664,166.777969 79.201775,169.000443 78.850372,171.124374 
	C78.685066,172.123550 77.374695,172.933273 76.583206,173.828857 
	C76.070435,172.792831 75.557663,171.756805 75.109100,170.331940 
z"/>
<path fill="#E58505" opacity="1.000000" stroke="none" 
	d="
M54.295700,145.296860 
	C60.024799,144.997879 66.046410,144.996353 72.536942,144.990570 
	C74.973778,144.986313 76.941689,144.986313 78.909599,144.986313 
	C78.904465,145.188980 78.899330,145.391663 78.894188,145.594330 
	C70.792198,145.594330 62.690208,145.594330 54.295700,145.296860 
z"/>
<path fill="#F68C18" opacity="1.000000" stroke="none" 
	d="
M79.039764,140.296265 
	C79.448769,139.999954 79.894081,140.002945 80.673523,140.010925 
	C80.769363,140.531631 80.531082,141.047363 80.292801,141.563095 
	C79.887215,141.240601 79.481636,140.918106 79.039764,140.296265 
z"/>
<path fill="#F19021" opacity="1.000000" stroke="none" 
	d="
M75.022087,130.667526 
	C75.296219,129.202255 75.584251,128.119965 75.872292,127.037689 
	C76.514580,127.143593 77.156868,127.249496 77.799156,127.355400 
	C77.532379,128.988495 77.265594,130.621582 76.998817,132.254684 
	C76.344543,131.853287 75.690269,131.451904 75.022087,130.667526 
z"/>
<path fill="#EB9215" opacity="1.000000" stroke="none" 
	d="
M166.522812,76.020248 
	C165.863571,76.685448 164.742310,77.903130 163.609177,77.914284 
	C150.140305,78.046738 136.669556,78.024620 123.199814,77.948273 
	C122.194351,77.942574 121.193016,77.210945 120.100220,76.423279 
	C135.358871,76.023918 150.707077,76.018066 166.522812,76.020248 
z"/>
<path fill="#F09017" opacity="1.000000" stroke="none" 
	d="
M117.002258,92.534363 
	C115.642052,93.001015 114.281013,93.011353 112.516495,93.043427 
	C113.306137,87.679276 114.122124,82.292618 112.113373,76.512909 
	C112.810326,76.081223 113.539536,76.036957 114.635567,76.000763 
	C115.668739,81.365242 116.335083,86.721649 117.002258,92.534363 
z"/>
<path fill="#E98F0F" opacity="1.000000" stroke="none" 
	d="
M115.327133,61.006241 
	C115.086037,60.671043 115.269165,60.401016 115.755524,60.067429 
	C116.241516,60.145168 116.512100,60.346035 116.895996,60.775581 
	C116.560707,61.006786 116.112114,61.009312 115.327133,61.006241 
z"/>
<path fill="#F28F11" opacity="1.000000" stroke="none" 
	d="
M81.005508,93.388992 
	C81.337845,92.550072 81.661453,92.078148 82.253296,91.306122 
	C82.521523,91.006027 83.005081,90.994507 83.005081,90.994507 
	C83.496933,90.726334 83.988785,90.458168 84.735115,90.070335 
	C85.342537,93.392822 84.528748,96.245895 80.414207,98.614784 
	C80.681564,96.384956 80.839165,95.070473 81.005508,93.388992 
z"/>
<path fill="#F28F11" opacity="1.000000" stroke="none" 
	d="
M85.143288,86.564529 
	C85.611275,86.154083 85.998749,86.083588 86.681976,85.992119 
	C86.531868,86.962669 86.085991,87.954201 85.313736,88.978035 
	C85.012497,88.308395 85.037628,87.606438 85.143288,86.564529 
z"/>
<path fill="#E58505" opacity="1.000000" stroke="none" 
	d="
M117.641998,141.926086 
	C120.494713,141.590790 123.795853,141.299622 128.017334,141.007324 
	C136.292206,140.994781 143.646713,140.983383 151.001221,140.972000 
	C155.025253,140.979416 159.049286,140.986832 163.911621,140.991806 
	C165.500565,140.990463 166.251190,140.991562 167.001831,140.992676 
	C167.001831,140.992676 166.990265,141.476379 166.974487,141.717346 
	C150.669296,141.962280 134.379852,141.966248 117.641998,141.926086 
z"/>
<path fill="#F1901D" opacity="1.000000" stroke="none" 
	d="
M118.995895,112.383957 
	C133.690109,112.000839 148.376877,112.001068 163.532425,112.003693 
	C164.473099,117.552803 165.023392,117.814278 171.444824,115.150597 
	C170.480301,119.246132 163.497604,119.868584 165.498383,125.641159 
	C149.043198,125.994545 133.022522,125.995323 117.001831,125.996094 
	C117.664032,121.586494 118.326233,117.176895 118.995895,112.383957 
z"/>
<path fill="#F1901F" opacity="1.000000" stroke="none" 
	d="
M150.999786,140.569580 
	C143.646713,140.983383 136.292206,140.994781 128.469147,141.003082 
	C127.820282,137.566971 129.987457,137.959198 132.305786,138.174484 
	C133.378571,138.274124 134.516586,137.671295 135.625031,137.386948 
	C134.790314,136.554916 134.094009,135.461899 133.098129,134.933746 
	C127.222664,131.817841 126.249474,132.140305 124.402359,137.442322 
	C122.800797,137.439743 121.199577,137.439743 119.598358,137.439743 
	C119.933113,137.162888 120.267860,136.886017 120.602608,136.609161 
	C118.598183,133.999847 116.593758,131.390549 114.294205,128.890930 
	C113.679207,128.538269 113.359322,128.075943 113.486122,127.309708 
	C131.288742,127.009674 148.644669,127.013542 166.000610,127.017410 
	C167.191467,130.434250 167.494614,133.256516 162.441223,133.171555 
	C161.703842,133.159164 160.595398,134.083969 160.262527,134.840729 
	C158.901260,137.935516 157.575058,137.290192 155.503250,135.403992 
	C154.394577,134.394653 152.473099,134.278107 150.137024,133.497543 
	C150.515610,136.429077 150.756973,138.298111 150.999786,140.569580 
z"/>
<path fill="#E58505" opacity="1.000000" stroke="none" 
	d="
M166.397339,127.008392 
	C148.644669,127.013542 131.288742,127.009674 113.463562,127.014458 
	C112.697174,126.927704 112.461151,126.750771 112.556129,126.256256 
	C113.552856,126.007530 114.279716,125.994858 115.006577,125.982185 
	C115.449936,125.988976 115.893288,125.995758 116.669235,125.999321 
	C133.022522,125.995323 149.043198,125.994545 165.532684,125.987823 
	C167.674774,125.981865 169.348083,125.981865 171.021408,125.981865 
	C171.013046,126.321037 171.004700,126.660202 170.996353,126.999374 
	C169.595596,126.999374 168.194839,126.999374 166.397339,127.008392 
z"/>
<path fill="#F1901F" opacity="1.000000" stroke="none" 
	d="
M167.000549,140.623077 
	C166.251190,140.991562 165.500565,140.990463 164.374680,140.982910 
	C164.365829,139.720520 164.732224,138.464600 165.098618,137.208664 
	C165.493118,137.239120 165.887619,137.269562 166.282120,137.300018 
	C166.521164,138.284500 166.760208,139.268982 167.000549,140.623077 
z"/>
<path fill="#FBF5EE" opacity="1.000000" stroke="none" 
	d="
M160.681854,45.832054 
	C161.253510,47.431355 161.515762,48.838421 161.578278,50.833931 
	C159.866852,53.165630 158.355179,54.908886 156.843491,56.652138 
	C155.847336,56.694416 154.851166,56.736694 153.250015,56.541454 
	C151.129730,55.121616 149.614426,53.939293 148.099152,52.756969 
	C148.010818,52.067513 147.922501,51.378056 147.742523,50.352924 
	C149.147415,47.702618 150.142715,44.536045 152.266068,43.286762 
	C154.984222,41.687531 158.300262,42.629539 160.681854,45.832054 
z"/>
<path fill="#F68D16" opacity="1.000000" stroke="none" 
	d="
M141.006653,52.575645 
	C140.218658,53.643780 139.429581,54.296242 138.319672,54.537384 
	C137.948059,52.952934 137.897278,51.779800 137.760773,50.289642 
	C137.045197,48.113522 136.415344,46.254429 135.954376,44.093071 
	C136.936386,43.117268 137.749527,42.443733 138.077759,42.171841 
	C139.098846,44.209110 140.049118,46.105083 140.999390,48.001053 
	C140.999390,48.001053 141.000000,48.000000 140.999390,48.000305 
	C141.001038,49.387062 141.003311,50.773514 141.006653,52.575645 
z"/>
<path fill="#FBF5EE" opacity="1.000000" stroke="none" 
	d="
M135.785492,44.395340 
	C136.415344,46.254429 137.045197,48.113522 137.529251,50.560455 
	C135.574097,53.065041 133.764755,54.981792 131.955414,56.898544 
	C131.227005,56.888260 130.498611,56.877972 129.195129,56.649536 
	C127.408829,55.633434 126.197594,54.835484 124.894066,53.763081 
	C124.491661,52.999676 124.181549,52.510723 123.893829,51.605125 
	C124.102013,43.816368 126.142082,42.191761 134.051147,43.483009 
	C134.728241,43.951942 135.256866,44.173641 135.785492,44.395340 
z"/>
<path fill="#EF9328" opacity="1.000000" stroke="none" 
	d="
M157.094299,56.996311 
	C158.355179,54.908886 159.866852,53.165630 161.606903,51.192383 
	C162.865891,50.209324 163.896500,49.456257 164.966583,48.354340 
	C165.863373,50.206715 167.759811,52.691986 167.259537,54.522114 
	C166.835358,56.073906 163.743713,57.170834 161.634552,57.882969 
	C160.405869,58.297817 158.787918,57.559792 157.094299,56.996311 
z"/>
<path fill="#F28F11" opacity="1.000000" stroke="none" 
	d="
M123.871445,52.021774 
	C124.181549,52.510723 124.491661,52.999676 124.891449,54.089989 
	C124.986839,55.127258 124.992561,55.563171 124.998283,55.999084 
	C124.248802,55.999470 123.499329,55.999859 122.366455,55.647079 
	C121.320908,54.531303 120.658768,53.768700 119.996620,53.006096 
	C119.225670,52.671089 118.454727,52.336086 117.346710,51.997658 
	C117.005424,51.247936 117.001190,50.501629 116.986786,49.382492 
	C118.130058,48.596008 119.283508,48.182358 120.721558,48.268402 
	C121.961266,49.852661 122.916351,50.937214 123.871445,52.021774 
z"/>
<path fill="#EF9328" opacity="1.000000" stroke="none" 
	d="
M132.187134,57.187546 
	C133.764755,54.981792 135.574097,53.065041 137.614990,50.877480 
	C137.897278,51.779800 137.948059,52.952934 137.997513,54.563721 
	C137.368057,58.600204 135.041077,58.371044 132.187134,57.187546 
z"/>
<path fill="#EF9328" opacity="1.000000" stroke="none" 
	d="
M148.066849,53.170120 
	C149.614426,53.939293 151.129730,55.121616 152.874786,56.526878 
	C149.059082,59.465672 148.095688,57.246792 148.066849,53.170120 
z"/>
<path fill="#EF9328" opacity="1.000000" stroke="none" 
	d="
M119.732025,53.229610 
	C120.658768,53.768700 121.320908,54.531303 121.991714,55.647057 
	C121.196098,56.170753 120.391830,56.341297 119.587555,56.511841 
	C119.547516,55.492268 119.507477,54.472698 119.732025,53.229610 
z"/>
<path fill="#EF9328" opacity="1.000000" stroke="none" 
	d="
M125.149597,56.296879 
	C124.992561,55.563171 124.986839,55.127258 124.983734,54.364441 
	C126.197594,54.835484 127.408829,55.633434 128.830963,56.663765 
	C127.794861,56.795654 126.547890,56.695164 125.149597,56.296879 
z"/>
<path fill="#E98F0F" opacity="1.000000" stroke="none" 
	d="
M171.709930,56.239651 
	C171.853943,56.197720 171.914124,56.535870 171.907959,56.706226 
	C171.901779,56.876583 171.523300,56.669613 171.523300,56.669613 
	C171.523300,56.669613 171.565903,56.281582 171.709930,56.239651 
z"/>
<path fill="#EF9328" opacity="1.000000" stroke="none" 
	d="
M135.954376,44.093071 
	C135.256866,44.173641 134.728241,43.951942 134.061493,43.162956 
	C133.626068,42.067291 133.328766,41.538910 132.915558,40.788712 
	C132.530609,40.377438 132.261551,40.187984 131.996246,39.999016 
	C132.000000,39.999496 131.996033,40.007683 131.996033,40.007683 
	C133.043167,39.187252 134.114319,37.672321 135.131866,37.707504 
	C136.698166,37.761662 139.081696,38.494232 139.592499,39.627068 
	C140.610153,41.884007 140.590179,44.608822 140.999115,47.570709 
	C140.049118,46.105083 139.098846,44.209110 138.077759,42.171841 
	C137.749527,42.443733 136.936386,43.117268 135.954376,44.093071 
z"/>
<path fill="#EE9432" opacity="1.000000" stroke="none" 
	d="
M133.031464,41.010529 
	C133.328766,41.538910 133.626068,42.067291 133.913025,42.915722 
	C126.142082,42.191761 124.102013,43.816368 123.893829,51.605125 
	C122.916351,50.937214 121.961266,49.852661 121.005890,48.384430 
	C121.119392,47.170269 121.233192,46.339787 121.179283,45.009277 
	C121.011574,44.509254 121.007935,44.010914 121.007935,44.010910 
	C122.480980,43.476765 123.954033,42.942616 126.089844,42.203636 
	C127.835480,41.333958 128.918350,40.669117 130.001221,40.004272 
	C130.444550,40.005383 130.887878,40.006489 131.663620,40.007637 
	C131.996033,40.007683 132.000000,39.999496 132.107788,40.223862 
	C132.487534,40.635658 132.759491,40.823093 133.031464,41.010529 
z"/>
<path fill="#EF9328" opacity="1.000000" stroke="none" 
	d="
M129.853455,39.710472 
	C128.918350,40.669117 127.835480,41.333958 126.377060,41.998791 
	C127.162155,41.031811 124.931564,35.199894 129.853455,39.710472 
z"/>
<path fill="#F28F11" opacity="1.000000" stroke="none" 
	d="
M121.003716,43.756039 
	C121.007935,44.010914 121.011574,44.509254 121.011703,44.758530 
	C120.837341,45.005260 120.662842,45.002720 120.226189,44.995567 
	C120.143410,44.434837 120.322792,43.878723 120.750198,43.156979 
	C120.998650,43.161285 120.999077,43.331223 121.003716,43.756039 
z"/>
<path fill="#EF9328" opacity="1.000000" stroke="none" 
	d="
M164.000519,16.999651 
	C163.113052,16.405327 162.225067,15.811351 161.337082,15.217377 
	C161.692764,14.756989 162.048447,14.296600 162.404114,13.836212 
	C163.018021,14.690509 163.631927,15.544806 164.122314,16.700024 
	C163.998779,17.000946 164.000000,17.000000 164.000519,16.999651 
z"/>
<path fill="#F28F11" opacity="1.000000" stroke="none" 
	d="
M96.991531,220.640594 
	C95.895760,221.321915 94.793282,221.629517 93.012115,221.968201 
	C91.888931,221.999512 91.444435,221.999756 90.999931,222.000000 
	C90.212830,221.686813 89.425720,221.373627 88.319778,221.040466 
	C90.320831,218.395996 95.180893,217.988281 96.991531,220.640594 
z"/>
<path fill="#F28F11" opacity="1.000000" stroke="none" 
	d="
M86.551468,218.466873 
	C86.585526,218.523605 86.517410,218.410141 86.551468,218.466873 
z"/>
<path fill="#F1901D" opacity="1.000000" stroke="none" 
	d="
M114.996574,125.613022 
	C114.279716,125.994858 113.552856,126.007530 112.466141,126.050583 
	C112.437782,125.139198 112.769279,124.197418 113.100769,123.255638 
	C113.729370,123.918381 114.357971,124.581116 114.996574,125.613022 
z"/>
<path fill="#F19020" opacity="1.000000" stroke="none" 
	d="
M100.236847,234.824677 
	C100.075714,234.896362 100.020103,234.454849 100.013977,234.232544 
	C100.137901,234.257828 100.267944,234.505417 100.236847,234.824677 
z"/>
<path fill="#F19020" opacity="1.000000" stroke="none" 
	d="
M102.999741,233.999695 
	C102.907112,234.035629 102.814751,234.071838 102.861496,234.054337 
	C103.000610,234.000610 103.000000,234.000000 102.999741,233.999695 
z"/>
<path fill="#F19020" opacity="1.000000" stroke="none" 
	d="
M90.999931,222.374725 
	C91.444435,221.999756 91.888931,221.999512 92.667130,222.000046 
	C93.000595,222.750748 93.000366,223.500656 92.999725,224.625702 
	C92.554588,225.000565 92.109863,225.000320 91.331047,224.998108 
	C90.997948,224.247253 90.998940,223.498352 90.999931,222.374725 
z"/>
<path fill="#F19020" opacity="1.000000" stroke="none" 
	d="
M88.217537,225.888504 
	C88.098709,225.673828 88.284279,225.413254 88.772110,225.104370 
	C88.895363,225.320999 88.711212,225.583176 88.217537,225.888504 
z"/>
<path fill="#F28F11" opacity="1.000000" stroke="none" 
	d="
M118.780228,45.103863 
	C118.900642,45.323452 118.711052,45.585812 118.212242,45.892197 
	C118.091545,45.673004 118.280617,45.409809 118.780228,45.103863 
z"/>
<path fill="#F19020" opacity="1.000000" stroke="none" 
	d="
M82.973381,90.693497 
	C83.005081,90.994507 82.521523,91.006027 82.280136,91.007172 
	C81.740273,90.595215 81.441788,90.182098 81.187729,89.505005 
	C81.801994,89.624847 82.371841,90.008667 82.973381,90.693497 
z"/>
<path fill="#F68D16" opacity="1.000000" stroke="none" 
	d="
M132.915558,40.788712 
	C132.759491,40.823093 132.487534,40.635658 132.104034,40.223381 
	C132.261551,40.187984 132.530609,40.377438 132.915558,40.788712 
z"/>
</svg>